{
	"asset":{
		"generator":"Khronos glTF Blender I/O v4.2.60",
		"version":"2.0"
	},
	"scene":0,
	"scenes":[
		{
			"name":"Scene",
			"nodes":[
				3
			]
		}
	],
	"nodes":[
		{
			"mesh":0,
			"name":"Mesh"
		},
		{
			"children":[
				0
			],
			"name":"Geometry"
		},
		{
			"name":"Materials"
		},
		{
			"children":[
				1,
				2
			],
			"name":"ObjectCapture",
			"rotation":[
				0.7071068286895752,
				0,
				0,
				0.7071068286895752
			]
		}
	],
	"materials":[
		{
			"doubleSided":true,
			"name":"Texture",
			"normalTexture":{
				"index":0
			},
			"pbrMetallicRoughness":{
				"baseColorTexture":{
					"index":1
				},
				"metallicFactor":0,
				"roughnessFactor":0.8999999761581421
			}
		}
	],
	"meshes":[
		{
			"name":"Mesh",
			"primitives":[
				{
					"attributes":{
						"POSITION":0,
						"NORMAL":1,
						"TEXCOORD_0":2
					},
					"indices":3,
					"material":0
				}
			]
		}
	],
	"textures":[
		{
			"sampler":0,
			"source":0
		},
		{
			"sampler":0,
			"source":1
		}
	],
	"images":[
		{
			"mimeType":"image/png",
			"name":"baked_mesh_norm0",
			"uri":"baked_mesh_norm0.png"
		},
		{
			"mimeType":"image/png",
			"name":"baked_mesh_tex0",
			"uri":"baked_mesh_tex0.png"
		}
	],
	"accessors":[
		{
			"bufferView":0,
			"componentType":5126,
			"count":11371,
			"max":[
				0.3042512536048889,
				0.16183380782604218,
				-0.0006507065263576806
			],
			"min":[
				-0.30425095558166504,
				-0.20927387475967407,
				-0.12453138083219528
			],
			"type":"VEC3"
		},
		{
			"bufferView":1,
			"componentType":5126,
			"count":11371,
			"type":"VEC3"
		},
		{
			"bufferView":2,
			"componentType":5126,
			"count":11371,
			"type":"VEC2"
		},
		{
			"bufferView":3,
			"componentType":5123,
			"count":52680,
			"type":"SCALAR"
		}
	],
	"bufferViews":[
		{
			"buffer":0,
			"byteLength":136452,
			"byteOffset":0,
			"target":34962
		},
		{
			"buffer":0,
			"byteLength":136452,
			"byteOffset":136452,
			"target":34962
		},
		{
			"buffer":0,
			"byteLength":90968,
			"byteOffset":272904,
			"target":34962
		},
		{
			"buffer":0,
			"byteLength":105360,
			"byteOffset":363872,
			"target":34963
		}
	],
	"samplers":[
		{
			"magFilter":9729,
			"minFilter":9987
		}
	],
	"buffers":[
		{
			"byteLength":469232,
			"uri":"untitled.bin"
		}
	]
}
